<svg xmlns="http://www.w3.org/2000/svg" width="258" height="38" viewBox="0 0 258 38">
  <g fill="none">
    <g fill="#000" transform="translate(45)">
      <path d="M1.64308772 36.16125C.699079934 35.2302727.193526222 33.9437975.251461988 32.62L.251461988.775 7.49992982.775 7.49992982 31.20375 27.4594971 31.20375 27.4594971 37.5 5.34616374 37.5C3.98238767 37.5653158 2.64907513 37.0832917 1.64308772 36.16125L1.64308772 36.16125zM32.1599883 7.66875C30.5134775 5.91238499 30.5134775 3.18136501 32.1599883 1.425 34.0647279-.148897066 36.8204183-.148897066 38.7251579 1.425 40.3710517 3.18160847 40.3710517 5.91214153 38.7251579 7.66875 36.8204183 9.24264707 34.0647279 9.24264707 32.1599883 7.66875L32.1599883 7.66875zM31.8709006 11.315L39.0142456 11.315 39.0142456 37.49375 31.8709006 37.49375 31.8709006 11.315zM53.6951462 36.68625C52.8992432 35.9820125 52.2940547 35.0886182 51.9355906 34.08875L42.9012865 11.32 50.4100585 11.32 56.6085497 29.32 56.7136725 29.32 62.9647251 11.32 70.4734971 11.32 59.9161637 37.49875 56.2393684 37.49875C55.3227334 37.5300133 54.4235994 37.242874 53.6951462 36.68625zM77.1200117 36.68625C75.49648 35.9304463 74.1211837 34.729714 73.1541287 33.22375 72.1957692 31.6917797 71.7032065 29.9148933 71.7362222 28.10875L71.7362222 21.34125C71.6968895 19.4267938 72.1875548 17.5386634 73.1541287 15.885 74.1009061 14.3101479 75.4763007 13.0365004 77.1200117 12.2125 78.9382037 11.3110216 80.9473761 10.8612012 82.9768538 10.90125L87.1792632 10.90125C90.141628 10.7581734 93.0431338 11.7742853 95.267462 13.73375 97.3284063 15.6939131 98.4392238 18.4490232 98.3135205 21.28875L98.3135205 26.85 78.8795673 26.85 78.8795673 28.10875C78.8343741 29.1498888 79.2353603 30.1609576 79.9821053 30.88875 80.8021459 31.6194366 81.878271 31.9964493 82.9756023 31.9375L87.0728889 31.9375C88.123302 31.9871511 89.1623489 31.7021957 90.0401053 31.12375 90.7543095 30.6540917 91.1790453 29.8527503 91.1664211 28.99875L98.2046433 28.99875C98.2302234 30.6645007 97.7345299 32.2966739 96.7867368 33.6675 95.7910942 35.0717867 94.415411 36.1635898 92.8208538 36.815 90.9649246 37.5796606 88.9712684 37.9545237 86.9640117 37.91625L82.971848 37.91625C80.9529919 37.9558494 78.9516681 37.5351903 77.1200117 36.68625zM91.2752982 21.7075L91.2752982 21.2875C91.3346181 20.0948523 90.9408378 18.9238203 90.1727602 18.00875 89.4245517 17.181769 88.3468042 16.7301019 87.2318246 16.77625L82.9768538 16.77625C81.8156821 16.733213 80.6968593 17.2148375 79.9307953 18.0875 79.1266264 19.0572976 78.7142139 20.292198 78.7744444 21.55L78.7744444 21.7075 91.2752982 21.7075z"/>
      <polygon points="106.823 7.07 95.164 7.07 95.164 .775 125.733 .775 125.733 7.07 114.073 7.07 114.073 37.499 106.825 37.499"/>
      <path d="M126.04717 35.1125C124.301738 33.0619267 123.40049 30.4261213 123.525474 27.7375L123.525474 11.31625 130.668819 11.31625 130.668819 27.8425C130.622516 28.8501743 130.929184 29.842474 131.536082 30.64875 132.082045 31.3513928 132.93117 31.7513069 133.821251 31.725L136.86731 31.725C138.072939 31.7032574 139.21492 31.1804986 140.018491 30.2825 141.017933 29.2195902 141.708077 27.9044453 142.014573 26.47875L142.014573 11.31625 149.157918 11.31625 149.157918 37.495 142.540187 37.495 142.540187 34.1375C141.750524 35.2417762 140.740182 36.1704951 139.572971 36.865 138.560141 37.5156012 137.388936 37.8781772 136.185263 37.91375L132.718713 37.91375C130.188788 38.0156085 127.744373 36.9892471 126.04717 35.1125zM164.599708 36.86875C163.49092 36.1818578 162.55597 35.2484274 161.867766 34.14125L161.867766 37.49875 155.250035 37.49875 155.250035.775 162.39338.775 162.39338 13.36625C163.132655 12.6046263 164.016799 11.9981779 164.993918 11.5825 165.924559 11.1509303 166.93525 10.9184577 167.961135 10.9L171.63793 10.9C173.512064 10.8628389 175.364557 11.3051966 177.019216 12.185 178.558686 13.021418 179.820072 14.2887163 180.648456 15.83125 181.531947 17.5122154 181.974558 19.3893919 181.934959 21.2875L181.934959 27.26875C181.974358 29.2034649 181.522733 31.1166521 180.622175 32.83 179.780016 34.4048865 178.50418 35.706124 176.94538 36.58 175.290578 37.4918 173.424868 37.9530487 171.53531 37.9175L167.90607 37.9175C166.726686 37.8881307 165.579975 37.5244038 164.599708 36.86875L164.599708 36.86875zM170.691825 31.675C171.840335 31.7106071 172.938975 31.2056656 173.659041 30.31125 174.446637 29.2933728 174.845892 28.0287702 174.785357 26.74375L174.785357 21.81125C174.843714 20.5867185 174.451557 19.3831658 173.682819 18.4275 172.967257 17.5807415 171.903259 17.1073827 170.794444 17.1425L167.540643 17.1425C166.212369 17.1125968 164.933619 17.6463011 164.021532 18.61125 163.040139 19.6747824 162.464272 21.0490539 162.394632 22.49375L162.394632 27.005C162.580148 28.288299 163.179417 29.4762211 164.101626 30.38875 164.945073 31.2258547 166.090157 31.6889391 167.279088 31.67375L170.691825 31.675zM191.312164 36.68625C189.688708 35.9303301 188.313441 34.7296236 187.346281 33.22375 186.387921 31.6917797 185.895358 29.9148933 185.928374 28.10875L185.928374 21.34125C185.889107 19.4268014 186.379767 17.5386883 187.346281 15.885 188.293166 14.3102354 189.668532 13.0366145 191.312164 12.2125 193.130339 11.3109748 195.139523 10.8611518 197.169006 10.90125L201.371415 10.90125C204.334186 10.7579768 207.236153 11.774093 209.460865 13.73375 211.52167 15.6940076 212.632461 18.4490516 212.506924 21.28875L212.506924 26.85 193.064211 26.85 193.064211 28.10875C193.018857 29.1499158 193.419868 30.1610478 194.166749 30.88875 194.986719 31.6195562 196.062895 31.9965867 197.160246 31.9375L201.257532 31.9375C202.307955 31.9872381 203.347028 31.7022754 204.224749 31.12375 204.938953 30.6540917 205.363689 29.8527503 205.351064 28.99875L212.389287 28.99875C212.414867 30.6645007 211.919173 32.2966739 210.97138 33.6675 209.975738 35.0717867 208.600054 36.1635898 207.005497 36.815 205.149578 37.579695 203.155915 37.9545595 201.148655 37.91625L197.156491 37.91625C195.140156 37.9547503 193.141518 37.534116 191.312164 36.68625L191.312164 36.68625zM205.46745 21.7075L205.46745 21.2875C205.52677 20.0948523 205.13299 18.9238203 204.364912 18.00875 203.616704 17.181769 202.538956 16.7301019 201.423977 16.77625L197.169006 16.77625C196.007834 16.733213 194.889011 17.2148375 194.122947 18.0875 193.318671 19.0572379 192.906244 20.2921812 192.966596 21.55L192.966596 21.7075 205.46745 21.7075z"/>
    </g>
    <g fill="#BD061C" transform="translate(0 1)">
      <path d="M34.9787517,14.3563658 L7.24290892,0.773882418 C6.31655174,0.292454631 5.28893527,0.0277067783 4.2406145,0.000392475538 C3.53912474,-0.00921848893 2.8468758,0.157831327 2.23023975,0.485525367 C0.872493752,1.33280502 0.0358980451,2.78772036 0,4.36411333 C0.597205108,11.0973272 4.24104373,17.2149759 9.93148967,21.0381131 C15.6219356,24.8612503 22.7611719,25.9882315 29.3898846,24.1097646 L34.9800153,21.372229 C36.9272105,20.4192894 38,19.1730424 38,17.8649162 C38,16.55679 36.9259469,15.3080678 34.9787517,14.3563658 Z"/>
      <path d="M6.93817727,19.5927625 C3.54753912,16.4787041 1.13732345,12.4515574 0,8 L0,30.4384082 C0,35.1601864 3.47096416,37.2969405 7.71214226,35.1850903 L27,25.5809037 C19.7427448,26.7785477 12.3370693,24.5686664 6.93692692,19.5940077 L6.93817727,19.5927625 Z"/>
    </g>
  </g>
</svg>
